<mxfile host="app.diagrams.net" modified="2023-05-03T15:43:25.763Z" agent="Mozilla/5.0 (Windows NT 10.0; Win64; x64) AppleWebKit/537.36 (KHTML, like Gecko) Chrome/111.0.0.0 Safari/537.36 OPR/97.0.0.0" etag="rL7d6dEj1yJ8gOB9L87v" version="21.2.4" type="github">
  <diagram name="Page-1" id="dPkXv4VznNK2O3BUba5d">
    <mxGraphModel dx="1393" dy="766" grid="1" gridSize="10" guides="1" tooltips="1" connect="1" arrows="1" fold="1" page="1" pageScale="1" pageWidth="3300" pageHeight="4681" math="0" shadow="0">
      <root>
        <mxCell id="0" />
        <mxCell id="1" parent="0" />
        <mxCell id="EPT6DEcNHBoLhUFcEhPN-2" style="edgeStyle=orthogonalEdgeStyle;rounded=0;orthogonalLoop=1;jettySize=auto;html=1;entryX=0.5;entryY=0;entryDx=0;entryDy=0;" parent="1" source="EPT6DEcNHBoLhUFcEhPN-1" target="EPT6DEcNHBoLhUFcEhPN-3" edge="1">
          <mxGeometry relative="1" as="geometry">
            <mxPoint x="950" y="230" as="targetPoint" />
          </mxGeometry>
        </mxCell>
        <mxCell id="M-Ld9ovTHKATSKdb43s8-2" style="edgeStyle=orthogonalEdgeStyle;rounded=0;orthogonalLoop=1;jettySize=auto;html=1;" parent="1" source="EPT6DEcNHBoLhUFcEhPN-1" target="M-Ld9ovTHKATSKdb43s8-1" edge="1">
          <mxGeometry relative="1" as="geometry">
            <Array as="points">
              <mxPoint x="950" y="190" />
              <mxPoint x="1100" y="190" />
            </Array>
          </mxGeometry>
        </mxCell>
        <mxCell id="M-Ld9ovTHKATSKdb43s8-5" style="edgeStyle=orthogonalEdgeStyle;rounded=0;orthogonalLoop=1;jettySize=auto;html=1;entryX=0.433;entryY=0.017;entryDx=0;entryDy=0;entryPerimeter=0;" parent="1" source="EPT6DEcNHBoLhUFcEhPN-1" target="M-Ld9ovTHKATSKdb43s8-4" edge="1">
          <mxGeometry relative="1" as="geometry" />
        </mxCell>
        <mxCell id="EPT6DEcNHBoLhUFcEhPN-1" value="Visiteur" style="rounded=0;whiteSpace=wrap;html=1;" parent="1" vertex="1">
          <mxGeometry x="875" y="70" width="150" height="80" as="geometry" />
        </mxCell>
        <mxCell id="EPT6DEcNHBoLhUFcEhPN-3" value="Page de présentation" style="rounded=0;whiteSpace=wrap;html=1;" parent="1" vertex="1">
          <mxGeometry x="760" y="230" width="120" height="60" as="geometry" />
        </mxCell>
        <mxCell id="M-Ld9ovTHKATSKdb43s8-1" value="&lt;div&gt;Page partenaires&lt;/div&gt;" style="rounded=0;whiteSpace=wrap;html=1;" parent="1" vertex="1">
          <mxGeometry x="1040" y="230" width="120" height="60" as="geometry" />
        </mxCell>
        <mxCell id="M-Ld9ovTHKATSKdb43s8-6" style="edgeStyle=orthogonalEdgeStyle;rounded=0;orthogonalLoop=1;jettySize=auto;html=1;" parent="1" source="M-Ld9ovTHKATSKdb43s8-4" edge="1">
          <mxGeometry relative="1" as="geometry">
            <mxPoint x="960" y="350" as="targetPoint" />
          </mxGeometry>
        </mxCell>
        <mxCell id="btmtO0nBGZAtlDk9d7Mz-33" style="edgeStyle=orthogonalEdgeStyle;rounded=0;orthogonalLoop=1;jettySize=auto;html=1;entryX=0.5;entryY=0;entryDx=0;entryDy=0;" parent="1" source="M-Ld9ovTHKATSKdb43s8-4" target="btmtO0nBGZAtlDk9d7Mz-32" edge="1">
          <mxGeometry relative="1" as="geometry">
            <Array as="points">
              <mxPoint x="960" y="320" />
              <mxPoint x="590" y="320" />
            </Array>
          </mxGeometry>
        </mxCell>
        <mxCell id="btmtO0nBGZAtlDk9d7Mz-42" style="edgeStyle=orthogonalEdgeStyle;rounded=0;orthogonalLoop=1;jettySize=auto;html=1;entryX=0;entryY=0.5;entryDx=0;entryDy=0;" parent="1" source="M-Ld9ovTHKATSKdb43s8-4" target="M-Ld9ovTHKATSKdb43s8-8" edge="1">
          <mxGeometry relative="1" as="geometry">
            <Array as="points">
              <mxPoint x="960" y="320" />
              <mxPoint x="1070" y="320" />
              <mxPoint x="1070" y="350" />
            </Array>
          </mxGeometry>
        </mxCell>
        <mxCell id="btmtO0nBGZAtlDk9d7Mz-44" style="edgeStyle=orthogonalEdgeStyle;rounded=0;orthogonalLoop=1;jettySize=auto;html=1;entryX=0;entryY=0.5;entryDx=0;entryDy=0;" parent="1" source="M-Ld9ovTHKATSKdb43s8-4" target="btmtO0nBGZAtlDk9d7Mz-43" edge="1">
          <mxGeometry relative="1" as="geometry">
            <Array as="points">
              <mxPoint x="960" y="320" />
              <mxPoint x="1300" y="320" />
            </Array>
          </mxGeometry>
        </mxCell>
        <mxCell id="M-Ld9ovTHKATSKdb43s8-4" value="&lt;div&gt;Connexion&lt;/div&gt;" style="rounded=0;whiteSpace=wrap;html=1;" parent="1" vertex="1">
          <mxGeometry x="900" y="230" width="120" height="60" as="geometry" />
        </mxCell>
        <mxCell id="M-Ld9ovTHKATSKdb43s8-11" style="edgeStyle=orthogonalEdgeStyle;rounded=0;orthogonalLoop=1;jettySize=auto;html=1;entryX=0.5;entryY=0;entryDx=0;entryDy=0;" parent="1" source="M-Ld9ovTHKATSKdb43s8-7" target="M-Ld9ovTHKATSKdb43s8-10" edge="1">
          <mxGeometry relative="1" as="geometry" />
        </mxCell>
        <mxCell id="M-Ld9ovTHKATSKdb43s8-13" style="edgeStyle=orthogonalEdgeStyle;rounded=0;orthogonalLoop=1;jettySize=auto;html=1;entryX=0.5;entryY=0;entryDx=0;entryDy=0;" parent="1" source="M-Ld9ovTHKATSKdb43s8-7" target="M-Ld9ovTHKATSKdb43s8-12" edge="1">
          <mxGeometry relative="1" as="geometry">
            <Array as="points">
              <mxPoint x="960" y="450" />
              <mxPoint x="1120" y="450" />
            </Array>
          </mxGeometry>
        </mxCell>
        <mxCell id="M-Ld9ovTHKATSKdb43s8-17" style="edgeStyle=orthogonalEdgeStyle;rounded=0;orthogonalLoop=1;jettySize=auto;html=1;entryX=0.5;entryY=0;entryDx=0;entryDy=0;" parent="1" source="M-Ld9ovTHKATSKdb43s8-7" target="M-Ld9ovTHKATSKdb43s8-16" edge="1">
          <mxGeometry relative="1" as="geometry">
            <Array as="points">
              <mxPoint x="960" y="450" />
              <mxPoint x="1390" y="450" />
            </Array>
          </mxGeometry>
        </mxCell>
        <mxCell id="M-Ld9ovTHKATSKdb43s8-19" style="edgeStyle=orthogonalEdgeStyle;rounded=0;orthogonalLoop=1;jettySize=auto;html=1;entryX=0.5;entryY=0;entryDx=0;entryDy=0;" parent="1" source="M-Ld9ovTHKATSKdb43s8-7" target="M-Ld9ovTHKATSKdb43s8-18" edge="1">
          <mxGeometry relative="1" as="geometry">
            <Array as="points">
              <mxPoint x="960" y="450" />
              <mxPoint x="810" y="450" />
            </Array>
          </mxGeometry>
        </mxCell>
        <mxCell id="M-Ld9ovTHKATSKdb43s8-7" value="Jeune" style="rounded=0;whiteSpace=wrap;html=1;" parent="1" vertex="1">
          <mxGeometry x="900" y="350" width="120" height="60" as="geometry" />
        </mxCell>
        <mxCell id="M-Ld9ovTHKATSKdb43s8-8" value="Nom,prénom,etc" style="ellipse;whiteSpace=wrap;html=1;" parent="1" vertex="1">
          <mxGeometry x="1120" y="310" width="120" height="80" as="geometry" />
        </mxCell>
        <mxCell id="M-Ld9ovTHKATSKdb43s8-21" style="edgeStyle=orthogonalEdgeStyle;rounded=0;orthogonalLoop=1;jettySize=auto;html=1;entryX=0.5;entryY=0;entryDx=0;entryDy=0;" parent="1" source="M-Ld9ovTHKATSKdb43s8-10" target="M-Ld9ovTHKATSKdb43s8-20" edge="1">
          <mxGeometry relative="1" as="geometry" />
        </mxCell>
        <mxCell id="M-Ld9ovTHKATSKdb43s8-10" value="Demande de référence" style="rounded=0;whiteSpace=wrap;html=1;" parent="1" vertex="1">
          <mxGeometry x="900" y="500" width="120" height="60" as="geometry" />
        </mxCell>
        <mxCell id="btmtO0nBGZAtlDk9d7Mz-13" style="edgeStyle=orthogonalEdgeStyle;rounded=0;orthogonalLoop=1;jettySize=auto;html=1;entryX=0.5;entryY=0;entryDx=0;entryDy=0;" parent="1" source="M-Ld9ovTHKATSKdb43s8-12" target="btmtO0nBGZAtlDk9d7Mz-12" edge="1">
          <mxGeometry relative="1" as="geometry" />
        </mxCell>
        <mxCell id="M-Ld9ovTHKATSKdb43s8-12" value="&lt;div&gt;Liste/envoie référence&lt;/div&gt;" style="rounded=0;whiteSpace=wrap;html=1;" parent="1" vertex="1">
          <mxGeometry x="1060" y="500" width="120" height="60" as="geometry" />
        </mxCell>
        <mxCell id="btmtO0nBGZAtlDk9d7Mz-40" style="edgeStyle=orthogonalEdgeStyle;rounded=0;orthogonalLoop=1;jettySize=auto;html=1;entryX=0.5;entryY=0;entryDx=0;entryDy=0;" parent="1" source="M-Ld9ovTHKATSKdb43s8-16" target="M-Ld9ovTHKATSKdb43s8-26" edge="1">
          <mxGeometry relative="1" as="geometry" />
        </mxCell>
        <mxCell id="M-Ld9ovTHKATSKdb43s8-16" value="référence CV" style="rounded=0;whiteSpace=wrap;html=1;" parent="1" vertex="1">
          <mxGeometry x="1330" y="500" width="120" height="60" as="geometry" />
        </mxCell>
        <mxCell id="btmtO0nBGZAtlDk9d7Mz-17" style="edgeStyle=orthogonalEdgeStyle;rounded=0;orthogonalLoop=1;jettySize=auto;html=1;entryX=0.5;entryY=0;entryDx=0;entryDy=0;" parent="1" source="M-Ld9ovTHKATSKdb43s8-18" target="btmtO0nBGZAtlDk9d7Mz-16" edge="1">
          <mxGeometry relative="1" as="geometry" />
        </mxCell>
        <mxCell id="M-Ld9ovTHKATSKdb43s8-18" value="Profil" style="rounded=0;whiteSpace=wrap;html=1;" parent="1" vertex="1">
          <mxGeometry x="750" y="500" width="120" height="60" as="geometry" />
        </mxCell>
        <mxCell id="M-Ld9ovTHKATSKdb43s8-23" style="edgeStyle=orthogonalEdgeStyle;rounded=0;orthogonalLoop=1;jettySize=auto;html=1;entryX=0.5;entryY=0;entryDx=0;entryDy=0;" parent="1" source="M-Ld9ovTHKATSKdb43s8-20" target="M-Ld9ovTHKATSKdb43s8-22" edge="1">
          <mxGeometry relative="1" as="geometry" />
        </mxCell>
        <mxCell id="M-Ld9ovTHKATSKdb43s8-20" value="Formulaire" style="ellipse;whiteSpace=wrap;html=1;" parent="1" vertex="1">
          <mxGeometry x="900" y="600" width="120" height="80" as="geometry" />
        </mxCell>
        <mxCell id="M-Ld9ovTHKATSKdb43s8-25" style="edgeStyle=orthogonalEdgeStyle;rounded=0;orthogonalLoop=1;jettySize=auto;html=1;entryX=0.5;entryY=0;entryDx=0;entryDy=0;" parent="1" source="M-Ld9ovTHKATSKdb43s8-22" target="M-Ld9ovTHKATSKdb43s8-24" edge="1">
          <mxGeometry relative="1" as="geometry" />
        </mxCell>
        <mxCell id="M-Ld9ovTHKATSKdb43s8-22" value="Lien référent" style="rhombus;whiteSpace=wrap;html=1;" parent="1" vertex="1">
          <mxGeometry x="920" y="710" width="80" height="80" as="geometry" />
        </mxCell>
        <mxCell id="btmtO0nBGZAtlDk9d7Mz-4" style="edgeStyle=orthogonalEdgeStyle;rounded=0;orthogonalLoop=1;jettySize=auto;html=1;entryX=0.5;entryY=0;entryDx=0;entryDy=0;" parent="1" source="M-Ld9ovTHKATSKdb43s8-24" target="btmtO0nBGZAtlDk9d7Mz-3" edge="1">
          <mxGeometry relative="1" as="geometry">
            <Array as="points">
              <mxPoint x="960" y="910" />
              <mxPoint x="750" y="910" />
            </Array>
          </mxGeometry>
        </mxCell>
        <mxCell id="btmtO0nBGZAtlDk9d7Mz-6" style="edgeStyle=orthogonalEdgeStyle;rounded=0;orthogonalLoop=1;jettySize=auto;html=1;entryX=0.583;entryY=0.017;entryDx=0;entryDy=0;entryPerimeter=0;" parent="1" source="M-Ld9ovTHKATSKdb43s8-24" target="btmtO0nBGZAtlDk9d7Mz-5" edge="1">
          <mxGeometry relative="1" as="geometry" />
        </mxCell>
        <mxCell id="btmtO0nBGZAtlDk9d7Mz-8" style="edgeStyle=orthogonalEdgeStyle;rounded=0;orthogonalLoop=1;jettySize=auto;html=1;entryX=0.5;entryY=0;entryDx=0;entryDy=0;" parent="1" source="M-Ld9ovTHKATSKdb43s8-24" target="btmtO0nBGZAtlDk9d7Mz-7" edge="1">
          <mxGeometry relative="1" as="geometry">
            <Array as="points">
              <mxPoint x="960" y="910" />
              <mxPoint x="1100" y="910" />
            </Array>
          </mxGeometry>
        </mxCell>
        <mxCell id="M-Ld9ovTHKATSKdb43s8-24" value="Référent" style="rounded=0;whiteSpace=wrap;html=1;" parent="1" vertex="1">
          <mxGeometry x="900" y="830" width="120" height="60" as="geometry" />
        </mxCell>
        <mxCell id="M-Ld9ovTHKATSKdb43s8-26" value="Livret d&#39;expérience" style="ellipse;whiteSpace=wrap;html=1;" parent="1" vertex="1">
          <mxGeometry x="1330" y="600" width="120" height="80" as="geometry" />
        </mxCell>
        <mxCell id="btmtO0nBGZAtlDk9d7Mz-3" value="Page de présentaion" style="rounded=0;whiteSpace=wrap;html=1;" parent="1" vertex="1">
          <mxGeometry x="690" y="930" width="120" height="60" as="geometry" />
        </mxCell>
        <mxCell id="btmtO0nBGZAtlDk9d7Mz-5" value="Profil Jeune" style="rounded=0;whiteSpace=wrap;html=1;" parent="1" vertex="1">
          <mxGeometry x="890" y="930" width="120" height="60" as="geometry" />
        </mxCell>
        <mxCell id="btmtO0nBGZAtlDk9d7Mz-37" style="edgeStyle=orthogonalEdgeStyle;rounded=0;orthogonalLoop=1;jettySize=auto;html=1;entryX=0.5;entryY=0;entryDx=0;entryDy=0;" parent="1" source="btmtO0nBGZAtlDk9d7Mz-7" target="btmtO0nBGZAtlDk9d7Mz-35" edge="1">
          <mxGeometry relative="1" as="geometry" />
        </mxCell>
        <mxCell id="btmtO0nBGZAtlDk9d7Mz-7" value="&lt;div&gt;Demande référence&lt;/div&gt;" style="rounded=0;whiteSpace=wrap;html=1;" parent="1" vertex="1">
          <mxGeometry x="1040" y="930" width="120" height="60" as="geometry" />
        </mxCell>
        <mxCell id="btmtO0nBGZAtlDk9d7Mz-31" style="edgeStyle=orthogonalEdgeStyle;rounded=0;orthogonalLoop=1;jettySize=auto;html=1;entryX=0.5;entryY=0;entryDx=0;entryDy=0;" parent="1" source="btmtO0nBGZAtlDk9d7Mz-9" target="btmtO0nBGZAtlDk9d7Mz-30" edge="1">
          <mxGeometry relative="1" as="geometry" />
        </mxCell>
        <mxCell id="btmtO0nBGZAtlDk9d7Mz-9" value="Confirmation/remerciement" style="rounded=0;whiteSpace=wrap;html=1;" parent="1" vertex="1">
          <mxGeometry x="1005" y="1090" width="190" height="60" as="geometry" />
        </mxCell>
        <mxCell id="btmtO0nBGZAtlDk9d7Mz-15" style="edgeStyle=orthogonalEdgeStyle;rounded=0;orthogonalLoop=1;jettySize=auto;html=1;entryX=0.5;entryY=0;entryDx=0;entryDy=0;" parent="1" source="btmtO0nBGZAtlDk9d7Mz-12" target="btmtO0nBGZAtlDk9d7Mz-14" edge="1">
          <mxGeometry relative="1" as="geometry" />
        </mxCell>
        <mxCell id="btmtO0nBGZAtlDk9d7Mz-41" style="edgeStyle=orthogonalEdgeStyle;rounded=0;orthogonalLoop=1;jettySize=auto;html=1;entryX=0;entryY=0.5;entryDx=0;entryDy=0;" parent="1" source="btmtO0nBGZAtlDk9d7Mz-12" target="btmtO0nBGZAtlDk9d7Mz-39" edge="1">
          <mxGeometry relative="1" as="geometry" />
        </mxCell>
        <mxCell id="btmtO0nBGZAtlDk9d7Mz-12" value="Sélection des référence" style="ellipse;whiteSpace=wrap;html=1;" parent="1" vertex="1">
          <mxGeometry x="1060" y="600" width="120" height="80" as="geometry" />
        </mxCell>
        <mxCell id="btmtO0nBGZAtlDk9d7Mz-19" style="edgeStyle=orthogonalEdgeStyle;rounded=0;orthogonalLoop=1;jettySize=auto;html=1;entryX=0.5;entryY=0;entryDx=0;entryDy=0;" parent="1" source="btmtO0nBGZAtlDk9d7Mz-14" target="btmtO0nBGZAtlDk9d7Mz-18" edge="1">
          <mxGeometry relative="1" as="geometry">
            <Array as="points">
              <mxPoint x="1120" y="800" />
              <mxPoint x="1380" y="800" />
            </Array>
          </mxGeometry>
        </mxCell>
        <mxCell id="btmtO0nBGZAtlDk9d7Mz-14" value="Lien consultant" style="rhombus;whiteSpace=wrap;html=1;" parent="1" vertex="1">
          <mxGeometry x="1080" y="710" width="80" height="80" as="geometry" />
        </mxCell>
        <mxCell id="btmtO0nBGZAtlDk9d7Mz-16" value="Modif info" style="ellipse;whiteSpace=wrap;html=1;" parent="1" vertex="1">
          <mxGeometry x="750" y="600" width="120" height="80" as="geometry" />
        </mxCell>
        <mxCell id="btmtO0nBGZAtlDk9d7Mz-21" style="edgeStyle=orthogonalEdgeStyle;rounded=0;orthogonalLoop=1;jettySize=auto;html=1;entryX=0.5;entryY=0;entryDx=0;entryDy=0;" parent="1" source="btmtO0nBGZAtlDk9d7Mz-18" target="btmtO0nBGZAtlDk9d7Mz-20" edge="1">
          <mxGeometry relative="1" as="geometry" />
        </mxCell>
        <mxCell id="btmtO0nBGZAtlDk9d7Mz-23" style="edgeStyle=orthogonalEdgeStyle;rounded=0;orthogonalLoop=1;jettySize=auto;html=1;entryX=0.5;entryY=0;entryDx=0;entryDy=0;" parent="1" source="btmtO0nBGZAtlDk9d7Mz-18" target="btmtO0nBGZAtlDk9d7Mz-22" edge="1">
          <mxGeometry relative="1" as="geometry" />
        </mxCell>
        <mxCell id="btmtO0nBGZAtlDk9d7Mz-25" style="edgeStyle=orthogonalEdgeStyle;rounded=0;orthogonalLoop=1;jettySize=auto;html=1;entryX=0.5;entryY=0;entryDx=0;entryDy=0;" parent="1" source="btmtO0nBGZAtlDk9d7Mz-18" target="btmtO0nBGZAtlDk9d7Mz-24" edge="1">
          <mxGeometry relative="1" as="geometry">
            <Array as="points">
              <mxPoint x="1380" y="920" />
              <mxPoint x="1630" y="920" />
            </Array>
          </mxGeometry>
        </mxCell>
        <mxCell id="btmtO0nBGZAtlDk9d7Mz-18" value="Consultant" style="rounded=0;whiteSpace=wrap;html=1;" parent="1" vertex="1">
          <mxGeometry x="1320" y="840" width="120" height="60" as="geometry" />
        </mxCell>
        <mxCell id="btmtO0nBGZAtlDk9d7Mz-20" value="Page de présentaion" style="rounded=0;whiteSpace=wrap;html=1;" parent="1" vertex="1">
          <mxGeometry x="1240" y="940" width="120" height="60" as="geometry" />
        </mxCell>
        <mxCell id="btmtO0nBGZAtlDk9d7Mz-22" value="Profil Jeune" style="rounded=0;whiteSpace=wrap;html=1;" parent="1" vertex="1">
          <mxGeometry x="1410" y="940" width="120" height="60" as="geometry" />
        </mxCell>
        <mxCell id="btmtO0nBGZAtlDk9d7Mz-24" value="Liste références" style="rounded=0;whiteSpace=wrap;html=1;" parent="1" vertex="1">
          <mxGeometry x="1570" y="940" width="120" height="60" as="geometry" />
        </mxCell>
        <mxCell id="btmtO0nBGZAtlDk9d7Mz-28" style="edgeStyle=orthogonalEdgeStyle;rounded=0;orthogonalLoop=1;jettySize=auto;html=1;entryX=0.5;entryY=0;entryDx=0;entryDy=0;" parent="1" source="btmtO0nBGZAtlDk9d7Mz-26" target="btmtO0nBGZAtlDk9d7Mz-27" edge="1">
          <mxGeometry relative="1" as="geometry" />
        </mxCell>
        <mxCell id="btmtO0nBGZAtlDk9d7Mz-26" value="Liste compte" style="rounded=0;whiteSpace=wrap;html=1;" parent="1" vertex="1">
          <mxGeometry x="530" y="440" width="120" height="60" as="geometry" />
        </mxCell>
        <mxCell id="btmtO0nBGZAtlDk9d7Mz-27" value="&lt;div&gt;Liste référence&lt;/div&gt;" style="rounded=0;whiteSpace=wrap;html=1;" parent="1" vertex="1">
          <mxGeometry x="530" y="530" width="120" height="60" as="geometry" />
        </mxCell>
        <mxCell id="btmtO0nBGZAtlDk9d7Mz-30" value="Mail confirm jeune" style="shape=parallelogram;perimeter=parallelogramPerimeter;whiteSpace=wrap;html=1;fixedSize=1;" parent="1" vertex="1">
          <mxGeometry x="1035" y="1180" width="130" height="60" as="geometry" />
        </mxCell>
        <mxCell id="btmtO0nBGZAtlDk9d7Mz-34" style="edgeStyle=orthogonalEdgeStyle;rounded=0;orthogonalLoop=1;jettySize=auto;html=1;entryX=0.5;entryY=0;entryDx=0;entryDy=0;" parent="1" source="btmtO0nBGZAtlDk9d7Mz-32" target="btmtO0nBGZAtlDk9d7Mz-26" edge="1">
          <mxGeometry relative="1" as="geometry" />
        </mxCell>
        <mxCell id="btmtO0nBGZAtlDk9d7Mz-32" value="Admin" style="shape=parallelogram;perimeter=parallelogramPerimeter;whiteSpace=wrap;html=1;fixedSize=1;" parent="1" vertex="1">
          <mxGeometry x="530" y="340" width="120" height="60" as="geometry" />
        </mxCell>
        <mxCell id="btmtO0nBGZAtlDk9d7Mz-38" style="edgeStyle=orthogonalEdgeStyle;rounded=0;orthogonalLoop=1;jettySize=auto;html=1;entryX=0.5;entryY=0;entryDx=0;entryDy=0;" parent="1" source="btmtO0nBGZAtlDk9d7Mz-35" target="btmtO0nBGZAtlDk9d7Mz-9" edge="1">
          <mxGeometry relative="1" as="geometry" />
        </mxCell>
        <mxCell id="btmtO0nBGZAtlDk9d7Mz-35" value="Savoir être/faire" style="shape=parallelogram;perimeter=parallelogramPerimeter;whiteSpace=wrap;html=1;fixedSize=1;" parent="1" vertex="1">
          <mxGeometry x="1040" y="1010" width="120" height="60" as="geometry" />
        </mxCell>
        <mxCell id="btmtO0nBGZAtlDk9d7Mz-39" value="Archiver" style="shape=parallelogram;perimeter=parallelogramPerimeter;whiteSpace=wrap;html=1;fixedSize=1;" parent="1" vertex="1">
          <mxGeometry x="1195" y="610" width="120" height="60" as="geometry" />
        </mxCell>
        <mxCell id="btmtO0nBGZAtlDk9d7Mz-43" value="&lt;div&gt;Google,etc&lt;/div&gt;" style="shape=parallelogram;perimeter=parallelogramPerimeter;whiteSpace=wrap;html=1;fixedSize=1;" parent="1" vertex="1">
          <mxGeometry x="1300" y="290" width="120" height="60" as="geometry" />
        </mxCell>
      </root>
    </mxGraphModel>
  </diagram>
</mxfile>
